<svg width="45" height="46" viewBox="0 0 45 46" fill="none" xmlns="http://www.w3.org/2000/svg">
<path d="M44.1763 1.09321C43.8368 0.79354 43.3869 0.649635 42.9361 0.696327L14.2064 3.88379C13.3977 3.97316 12.7858 4.65561 12.7859 5.46796V33.8702C11.3393 33.0059 9.68345 32.5533 7.99763 32.5618C3.59718 32.5618 0.0170898 35.421 0.0170898 38.9368C0.0170898 42.4526 3.59718 45.3118 7.99754 45.3118C12.3979 45.3118 15.978 42.4542 15.978 38.9368V14.8712L41.5156 12.0312V30.678C40.0685 29.8153 38.4126 29.3645 36.7273 29.3743C32.3268 29.3743 28.7468 32.2335 28.7468 35.7493C28.7468 39.2651 32.3269 42.1243 36.7273 42.1243C41.1276 42.1243 44.7077 39.2667 44.7077 35.7493V2.28058C44.7077 1.8273 44.5145 1.39549 44.1763 1.09321Z" fill="current"/>
</svg>
