<svg width="90" height="46" viewBox="0 0 90 46" fill="none" xmlns="http://www.w3.org/2000/svg">
<path fill-rule="evenodd" clip-rule="evenodd" d="M88.0685 0.697529C88.461 0.656872 88.8527 0.782177 89.1483 1.04311C89.4428 1.30633 89.6111 1.68232 89.6111 2.07702V31.22C89.6111 34.2828 86.4937 36.7711 82.6621 36.7711C78.8304 36.7711 75.7131 34.2814 75.7131 31.22C75.7131 28.1586 78.8303 25.6689 82.6621 25.6689C84.1296 25.6604 85.5714 26.053 86.8315 26.8042V10.5674L64.5946 13.0404V33.9955C64.5946 37.0583 61.4772 39.5466 57.6456 39.5466C57.6213 39.5466 57.5971 39.5465 57.573 39.5463C57.4247 39.5539 57.2751 39.5577 57.1245 39.5577C53.2929 39.5577 50.1755 37.068 50.1755 34.0066C50.1755 30.9452 53.2928 28.4556 57.1245 28.4556C57.1512 28.4554 57.1779 28.4554 57.2046 28.4555C57.3505 28.4482 57.4975 28.4444 57.6456 28.4444C58.9149 28.4381 60.1646 28.7318 61.2939 29.298V13.354L39.1445 15.8173V36.7631C39.1445 39.3325 36.9504 41.4977 33.9813 42.1285C33.3851 42.2619 32.7568 42.3332 32.108 42.3332C28.2764 42.3332 25.159 39.8435 25.159 36.7821C25.159 34.2148 27.3514 32.0496 30.3189 31.4175C30.9161 31.2836 31.5455 31.212 32.1955 31.212C33.6292 31.2036 35.0384 31.5781 36.2775 32.2959V16.1201L14.128 18.5834V39.5385C14.128 42.6013 11.0106 45.0896 7.17898 45.0896C3.34735 45.0896 0.22998 42.5999 0.22998 39.5385C0.22998 36.4771 3.34735 33.9876 7.17906 33.9875C8.64699 33.9802 10.0889 34.3742 11.3485 35.1268V10.3955C11.3484 9.68813 11.8812 9.09388 12.5854 9.01607L37.6019 6.24057C37.6527 6.23531 37.7035 6.23283 37.754 6.23306L62.5309 3.48415C62.6585 3.47093 62.786 3.47526 62.9102 3.49607C62.9566 3.48607 63.0039 3.47834 63.052 3.47302L88.0685 0.697529Z" fill="current"/>
    <line x1="13.7305" y1="25.7529" x2="87.9199" y2="17.2716" stroke="current" stroke-width="3"/>
</svg>
