<svg width="63" height="42" viewBox="0 0 63 42" fill="none" xmlns="http://www.w3.org/2000/svg">
<path fill-rule="evenodd" clip-rule="evenodd" d="M60.8925 0.819792C61.2727 0.780403 61.6522 0.901799 61.9387 1.15459C62.2239 1.4096 62.3869 1.77386 62.3869 2.15625V30.39C62.3869 33.3572 59.3668 35.7678 55.6547 35.7678C51.9427 35.7678 48.9226 33.3558 48.9226 30.39C48.9226 27.4241 51.9426 25.0121 55.6547 25.0121C57.0765 25.0038 58.4734 25.3841 59.6941 26.1119V10.3817L38.2355 12.7681V33.0604C38.2355 35.5482 36.1124 37.6448 33.2385 38.2573C32.6595 38.3872 32.0491 38.4567 31.4188 38.4567C27.7067 38.4567 24.6866 36.0447 24.6866 33.0789C24.6866 30.593 26.8081 28.4964 29.6805 27.8827C30.2605 27.7523 30.8719 27.6825 31.5033 27.6825C32.8924 27.6744 34.2577 28.0373 35.4582 28.7327V13.0615L13.9995 15.4479V35.7493C13.9995 38.7165 10.9794 41.1271 7.26734 41.1271C3.55526 41.1271 0.535156 38.7151 0.535156 35.7493C0.535156 32.7834 3.55526 30.3715 7.26742 30.3714C8.68955 30.3643 10.0864 30.7461 11.3068 31.4752V7.51547C11.3067 6.83019 11.8229 6.25449 12.5051 6.1791L36.741 3.4902C36.7904 3.48509 36.8397 3.48268 36.8888 3.48292L60.8925 0.819792Z" fill="current"/>
</svg>
